<svg width="531" height="322" viewBox="0 0 531 322" fill="none" xmlns="http://www.w3.org/2000/svg">
<rect width="531" height="322" fill="#E5E5E5"/>
<g clip-path="url(#clip0)">
<rect width="531" height="322" fill="white"/>
<path opacity="0.1" d="M522.592 216.478C510.276 238.004 485.269 252.397 459.353 261.889C424.464 274.673 386.042 279.743 348.149 277.598C341.508 277.224 334.887 276.626 328.287 275.804C305.363 272.97 283.013 267.456 261.878 259.419C255.778 257.092 249.801 254.551 243.948 251.796C234.173 247.206 224.806 242.016 215.924 236.268C213.69 234.823 211.486 233.341 209.314 231.822C207.807 230.77 206.315 229.694 204.799 228.649C201.601 226.446 198.31 224.353 194.639 222.786C193.531 222.312 192.395 221.888 191.236 221.513C179.611 217.767 166.206 219.18 154.103 222.102C144.898 224.325 135.924 227.369 126.728 229.541C122.637 230.536 118.469 231.287 114.254 231.787C104.844 232.796 95.288 232.085 86.2295 229.702L85.4554 229.497C84.1576 229.152 82.8705 228.773 81.5943 228.362L80.8202 228.111C79.5841 227.708 78.3743 227.274 77.1908 226.811L76.4167 226.513C75.1806 226.026 73.9708 225.511 72.7873 224.969C72.3609 224.781 71.939 224.576 71.5219 224.384C64.7881 221.198 58.6672 217.16 53.3702 212.41C53.2173 212.28 53.0736 212.147 52.9067 212.017C52.1697 211.342 51.4466 210.654 50.7467 209.951C50.4871 209.692 50.2275 209.433 49.9726 209.166C49.1414 208.307 48.3395 207.429 47.5669 206.531C47.451 206.401 47.3398 206.268 47.2285 206.138C44.0634 202.428 41.4393 198.407 39.4135 194.164C39.3486 194.034 39.2884 193.901 39.2327 193.771C38.6147 192.423 38.0507 191.052 37.5409 189.659C37.3323 189.078 37.133 188.481 36.9568 187.9C36.8966 187.727 36.8409 187.55 36.79 187.377C34.2313 178.843 33.9393 169.972 33.9393 161.151C33.9393 160.122 33.9393 159.095 33.9393 158.068C34.0134 143.801 34.273 129.289 36.7575 115.218C36.7575 115.12 36.79 115.022 36.8085 114.927C37.64 110.19 38.7711 105.494 40.1969 100.86C41.689 95.9971 43.5961 91.2326 45.9029 86.6039C51.6181 75.2149 59.9291 64.8508 69.1579 55.2448C92.4037 31.0725 122.89 10.7803 158.572 3.18499C197.021 -4.9955 239.754 2.84332 270.768 23.7638C280.224 30.1417 288.72 37.6938 299.34 42.5833C308.61 46.8404 319.461 48.6038 329.39 45.2538C337.594 42.4851 342.934 41.1105 352.149 41.5308C371.226 42.4451 390.032 45.7826 407.939 51.4314C408.662 51.6552 409.385 51.8869 410.104 52.1187C456.785 67.2504 496.913 97.3136 517.771 135.946C518.324 136.967 518.86 137.996 519.38 139.033C531.816 163.645 536.312 192.491 522.592 216.478Z" fill="#6C63FF"/>
<path opacity="0.1" d="M55.762 291.792C78.3615 291.792 96.682 289.298 96.682 286.223C96.682 283.147 78.3615 280.654 55.762 280.654C33.1625 280.654 14.8421 283.147 14.8421 286.223C14.8421 289.298 33.1625 291.792 55.762 291.792Z" fill="#6C63FF"/>
<path opacity="0.1" d="M422.855 322C462.926 322 495.411 319.327 495.411 316.031C495.411 312.734 462.926 310.061 422.855 310.061C382.784 310.061 350.3 312.734 350.3 316.031C350.3 319.327 382.784 322 422.855 322Z" fill="#6C63FF"/>
<path d="M488.546 42.3162H59.6232C56.4258 42.3162 53.8338 44.5123 53.8338 47.2214V248.827C53.8338 251.536 56.4258 253.732 59.6232 253.732H488.546C491.743 253.732 494.335 251.536 494.335 248.827V47.2214C494.335 44.5123 491.743 42.3162 488.546 42.3162Z" fill="url(#paint0_linear)"/>
<path d="M487.897 45.2892H60.3231C57.1257 45.2892 54.5337 47.4853 54.5337 50.1943V248.124C54.5337 250.833 57.1257 253.029 60.3231 253.029H487.897C491.094 253.029 493.686 250.833 493.686 248.124V50.1943C493.686 47.4853 491.094 45.2892 487.897 45.2892Z" fill="white"/>
<path d="M487.897 45.2892H60.3231C57.1257 45.2892 54.5337 47.4853 54.5337 50.1943V248.124C54.5337 250.833 57.1257 253.029 60.3231 253.029H487.897C491.094 253.029 493.686 250.833 493.686 248.124V50.1943C493.686 47.4853 491.094 45.2892 487.897 45.2892Z" fill="white"/>
<path opacity="0.04" d="M487.897 45.2892H60.3231C57.1257 45.2892 54.5337 47.4853 54.5337 50.1943V248.124C54.5337 250.833 57.1257 253.029 60.3231 253.029H487.897C491.094 253.029 493.686 250.833 493.686 248.124V50.1943C493.686 47.4853 491.094 45.2892 487.897 45.2892Z" fill="white"/>
<path d="M491.457 42.9053H56.7632C56.1719 42.9053 55.6048 43.1043 55.1867 43.4586C54.7686 43.8128 54.5337 44.2933 54.5337 44.7943V52.7785H493.668V44.7943C493.668 44.296 493.435 43.8179 493.021 43.4641C492.607 43.1103 492.045 42.9094 491.457 42.9053Z" fill="#5A5773"/>
<path d="M63.3036 50.3946C64.9676 50.3946 66.3165 49.2517 66.3165 47.8419C66.3165 46.4321 64.9676 45.2892 63.3036 45.2892C61.6396 45.2892 60.2907 46.4321 60.2907 47.8419C60.2907 49.2517 61.6396 50.3946 63.3036 50.3946Z" fill="white"/>
<path d="M71.4153 50.3946C73.0792 50.3946 74.4282 49.2517 74.4282 47.8419C74.4282 46.4321 73.0792 45.2892 71.4153 45.2892C69.7513 45.2892 68.4023 46.4321 68.4023 47.8419C68.4023 49.2517 69.7513 50.3946 71.4153 50.3946Z" fill="white"/>
<path d="M79.5269 50.3946C81.1909 50.3946 82.5399 49.2517 82.5399 47.8419C82.5399 46.4321 81.1909 45.2892 79.5269 45.2892C77.863 45.2892 76.514 46.4321 76.514 47.8419C76.514 49.2517 77.863 50.3946 79.5269 50.3946Z" fill="white"/>
<path opacity="0.2" d="M208.554 71.3465H90.7025V79.8216H208.554V71.3465Z" fill="#6C63FF"/>
<path opacity="0.1" d="M457.517 105.329H90.7025V235.698H457.517V105.329Z" fill="#5A5773"/>
<path opacity="0.1" d="M305.477 113.832H299.196V103.495C299.196 91.8311 288.22 82.1347 274.453 81.958C271.133 81.9285 267.84 82.4558 264.762 83.5097C261.684 84.5636 258.882 86.1231 256.519 88.0985C254.156 90.0738 252.277 92.4259 250.992 95.0192C249.706 97.6125 249.039 100.396 249.029 103.208V113.832H242.762C239.992 113.839 237.339 114.774 235.38 116.434C233.422 118.093 232.318 120.341 232.309 122.688V165.188C232.318 167.535 233.422 169.783 235.38 171.443C237.339 173.102 239.992 174.037 242.762 174.044H305.477C308.246 174.037 310.899 173.102 312.857 171.442C314.814 169.783 315.917 167.535 315.925 165.188V122.688C315.917 120.341 314.814 118.093 312.857 116.434C310.899 114.774 308.246 113.839 305.477 113.832ZM277.781 141.46V156.682C277.787 157.488 277.431 158.266 276.786 158.858C276.14 159.45 275.253 159.812 274.305 159.871C273.809 159.891 273.314 159.825 272.85 159.678C272.385 159.531 271.961 159.305 271.602 159.015C271.243 158.725 270.958 158.377 270.763 157.991C270.567 157.604 270.467 157.189 270.467 156.768V141.452C268.771 140.751 267.406 139.585 266.593 138.142C265.781 136.699 265.57 135.066 265.994 133.508C266.419 131.951 267.453 130.561 268.93 129.566C270.406 128.571 272.237 128.029 274.124 128.029C276.011 128.029 277.841 128.571 279.318 129.566C280.794 130.561 281.829 131.951 282.254 133.508C282.678 135.066 282.467 136.699 281.654 138.142C280.842 139.585 279.477 140.751 277.781 141.452V141.46ZM291.891 113.832H256.343V103.208C256.343 99.2161 258.215 95.3872 261.547 92.5642C264.879 89.7412 269.398 88.1552 274.11 88.1552C278.822 88.1552 283.341 89.7412 286.673 92.5642C290.005 95.3872 291.877 99.2161 291.877 103.208L291.891 113.832Z" fill="black"/>
<path d="M305.477 113.046H299.196V102.71C299.196 91.0457 288.22 81.3493 274.453 81.1725C271.133 81.143 267.84 81.6704 264.762 82.7242C261.684 83.7781 258.882 85.3377 256.519 87.313C254.156 89.2884 252.277 91.6404 250.992 94.2337C249.706 96.827 249.039 99.6102 249.029 102.423V113.046H242.762C239.992 113.053 237.339 113.989 235.38 115.648C233.422 117.307 232.318 119.556 232.309 121.902V164.403C232.318 166.749 233.422 168.998 235.38 170.657C237.339 172.316 239.992 173.252 242.762 173.259H305.477C308.246 173.252 310.899 172.316 312.857 170.657C314.814 168.997 315.917 166.749 315.925 164.403V121.902C315.917 119.556 314.814 117.308 312.857 115.648C310.899 113.989 308.246 113.053 305.477 113.046V113.046ZM277.781 140.674V155.897C277.787 156.703 277.431 157.48 276.786 158.072C276.14 158.665 275.253 159.027 274.305 159.085C273.809 159.105 273.314 159.039 272.85 158.892C272.385 158.745 271.961 158.52 271.602 158.23C271.243 157.94 270.958 157.591 270.763 157.205C270.567 156.819 270.467 156.403 270.467 155.983V140.667C268.771 139.966 267.406 138.799 266.593 137.356C265.781 135.914 265.57 134.28 265.994 132.723C266.419 131.165 267.453 129.776 268.93 128.781C270.406 127.786 272.237 127.244 274.124 127.244C276.011 127.244 277.841 127.786 279.318 128.781C280.794 129.776 281.829 131.165 282.254 132.723C282.678 134.28 282.467 135.914 281.654 137.356C280.842 138.799 279.477 139.966 277.781 140.667V140.674ZM291.891 113.046H256.343V102.423C256.343 98.4306 258.215 94.6018 261.547 91.7787C264.879 88.9557 269.398 87.3698 274.11 87.3698C278.822 87.3698 283.341 88.9557 286.673 91.7787C290.005 94.6018 291.877 98.4306 291.877 102.423L291.891 113.046Z" fill="#008DBC"/>
<path opacity="0.1" d="M457.517 92.7815H420.389V100.208H457.517V92.7815Z" fill="#5A5773"/>
<path d="M470.153 317.829C469.909 316.788 469.49 315.782 468.911 314.841L463.349 307.803H463.381C463.381 307.803 462.505 304.268 463.381 302.533C464.257 300.797 460.257 296.528 460.257 296.528C460.257 296.528 459.77 295.456 461.04 294.136C462.31 292.817 460.257 288.952 460.257 288.952C460.257 288.952 459.283 280.882 459.186 279.648C459.089 278.415 458.305 271.582 458.305 271.582L456.451 257.094L453.151 218.697L453.091 217.979C453.499 217.81 453.717 217.704 453.717 217.704L453.058 196.473L453.628 196.037C458.607 192.22 470.088 183.383 469.972 183.191C469.856 182.999 468.582 168.436 468.433 164.792C468.306 162.202 467.637 159.651 466.459 157.259C466.171 156.776 465.342 153.591 464.999 152.244C464.906 151.875 464.846 151.643 464.846 151.643C464.846 151.643 461.481 146.208 461.773 143.738C462.065 141.267 462.649 139.418 455.473 138.554C455.473 138.554 449.447 137.792 445.86 135.714C443.738 134.47 441.419 133.486 438.972 132.792C438.972 132.792 436.96 129.651 435.56 130.715C434.968 129.594 434.524 128.42 434.239 127.216L434.198 126.996C436.855 125.426 438.767 123.107 439.593 120.453C439.639 120.304 439.676 120.151 439.718 120.001C439.857 120.041 440.002 120.064 440.149 120.068C441.368 120.068 442.119 118.917 443.259 118.552C443.723 118.399 444.293 118.375 444.65 118.065C444.768 117.946 444.855 117.807 444.908 117.658C444.961 117.509 444.977 117.352 444.956 117.197C444.967 117.09 444.967 116.982 444.956 116.875C444.958 116.837 444.958 116.799 444.956 116.761V116.801C444.645 115.371 443.338 114.103 443.482 112.65C443.621 111.283 445.039 110.081 444.924 108.75C444.922 108.644 444.911 108.539 444.891 108.436V108.483C444.718 107.963 444.4 107.486 443.964 107.092C443.465 106.516 442.81 106.05 442.054 105.734C441.41 105.494 440.664 105.439 440.061 105.152C438.29 104.335 438.295 102.207 437.243 100.754C436.792 100.147 436.152 99.6579 435.394 99.3398C434.636 99.0218 433.789 98.8873 432.946 98.9512C431.63 99.0612 430.438 99.6542 429.136 99.8466C427.356 100.114 425.544 99.6228 423.856 99.0612C422.169 98.4996 420.459 97.883 418.646 97.883C416.834 97.883 414.873 98.6685 414.326 100.118C414.034 100.903 414.178 101.747 413.955 102.545C413.557 103.951 412.101 104.956 410.595 105.655C409.668 106.091 408.565 106.59 408.277 107.414C408.277 107.391 408.277 107.371 408.277 107.352C408.256 107.417 408.241 107.484 408.231 107.552C408.222 107.639 408.222 107.728 408.231 107.815C408.231 108.381 408.583 108.919 408.82 109.457C409.26 110.48 409.25 111.604 408.792 112.622C408.449 113.368 407.865 114.024 407.531 114.766C407.374 115.112 407.271 115.474 407.225 115.842V115.78C407.214 115.947 407.214 116.115 407.225 116.282C407.219 116.856 407.378 117.422 407.689 117.932C407.901 118.284 408.195 118.596 408.552 118.85C408.91 119.105 409.324 119.296 409.77 119.412C410.697 119.593 411.276 118.823 412.254 119.02C412.429 119.055 412.601 119.101 412.769 119.157C412.801 119.334 412.834 119.51 412.871 119.683C413.462 122.326 415.125 124.711 417.571 126.426C417.571 126.521 417.608 126.615 417.622 126.713C417.918 128.279 418.047 129.864 418.007 131.449C418.007 131.449 416.547 129.639 414.544 133.134C414.544 133.134 409.32 135.687 407.517 135.977C405.714 136.268 399.313 138.157 399.313 138.157C398.347 138.749 397.185 139.066 395.994 139.064C393.996 139.064 392.337 142.768 392.578 144.782C392.819 146.797 392.434 148.282 390.575 148.364C388.717 148.446 389.732 151.639 389.746 151.694L389.574 152.382C389.212 153.788 388.424 156.804 388.146 157.275C386.968 159.667 386.298 162.217 386.167 164.807C386.023 168.452 384.777 182.959 384.633 183.207C384.536 183.368 392.402 189.459 397.931 193.716L398.733 194.329L396.189 214.468C396.263 215.244 396.535 215.997 396.986 216.675C397.438 217.353 398.057 217.94 398.803 218.395C398.803 218.631 398.803 218.87 398.775 219.118C398.664 221.474 398.441 224.325 397.996 225.071C397.218 226.391 397.412 233.468 397.412 233.468C397.412 233.468 396.629 247.873 395.655 249.44C394.682 251.007 394.483 254.294 394.775 254.938C395.067 255.582 393.797 272.882 393.797 272.882L392.823 280.622C392.823 280.622 393.115 288.029 392.235 288.194C391.354 288.359 390.867 293.465 390.867 293.465C390.867 293.465 387.748 297.085 389.11 298.401C390.473 299.717 388.911 300.298 388.767 300.624C388.624 300.95 385.792 302.195 387.84 306.798C387.859 306.843 387.881 306.888 387.905 306.931C385.986 309.189 379.905 316.474 380.276 317.582C380.549 318.286 381.129 318.876 381.898 319.231C383.33 319.958 385.787 320.296 389.695 319.231C396.184 317.46 395.72 316.184 395.72 316.184C395.754 315.587 396.056 315.024 396.565 314.61C397.073 314.197 397.75 313.964 398.455 313.961C401.139 313.796 403.141 311.699 403.141 311.699L402.826 310.705L402.395 309.331C402.446 308.938 402.775 308.251 404.249 307.87C406.497 307.292 405.909 303.672 405.909 303.672C405.909 303.672 405.714 299.886 406.687 299.391C407.661 298.896 407.276 292.64 407.276 292.64C407.276 292.64 408.351 288.112 409.909 285.064C411.466 282.017 413.33 263.912 413.33 263.912C413.33 263.912 414.595 255.021 415.768 252.468C416.941 249.915 418.016 242.756 418.016 242.756C418.016 242.756 425.242 230.899 425.335 228.264C425.335 228.264 426.262 225.794 427.189 228.512C428.116 231.229 430.721 237.733 430.721 237.733L433.257 245.717L436.283 257.652L438.239 267.698C438.239 267.698 437.943 271.484 438.703 272.803C439.463 274.123 440.557 277.162 439.973 277.74C439.389 278.317 441.141 281.035 441.632 281.608C442.124 282.182 441.632 294.368 441.632 294.368C441.632 294.368 443.876 304.74 447.097 306.542C447.322 306.667 447.561 306.773 447.811 306.857C447.765 307.98 447.719 309.484 447.779 310.269C447.772 310.445 447.806 310.62 447.881 310.784C448.173 311.114 451.492 313.336 452.178 313.336C452.864 313.336 455.297 314.778 455.399 315.477C455.501 316.176 462.533 319.137 463.529 319.223C464.526 319.31 469.356 320.044 470.019 318.894C470.183 318.557 470.229 318.188 470.153 317.829ZM452.878 169.489L453.378 169.854C453.378 169.854 453.893 173.251 454.259 174.268C454.625 175.285 454.185 177.265 454.185 177.265C454.218 178.003 454.392 178.733 454.699 179.425C455.135 180.167 453.819 181.781 453.819 181.781H452.646L452.28 169.065L452.878 169.489ZM418.007 131.52V131.445C417.997 131.469 417.993 131.496 417.993 131.52H418.007ZM399.999 180.473C399.818 180.144 399.792 179.77 399.925 179.425C400.029 179.238 400.111 179.044 400.17 178.843C400.314 178.328 400.404 177.802 400.439 177.273C400.44 177.266 400.44 177.259 400.439 177.253C400.397 177.064 400.022 175.242 400.369 174.276C400.717 173.31 401.246 169.862 401.246 169.862L401.579 169.622L402.353 169.053C402.353 169.053 402.353 168.841 402.409 168.491C402.571 171.476 402.701 174.775 402.492 174.94C402.103 175.266 400.685 178.474 401.028 178.6C401.139 178.643 400.986 179.927 400.726 181.655C400.435 181.284 400.191 180.888 399.999 180.473V180.473Z" fill="url(#paint1_linear)"/>
<path d="M437.359 134.658V139.543L425.53 144.582C425.53 144.582 413.784 138.562 416.681 136.166C418.535 134.65 418.178 130.487 417.677 127.624C417.385 125.959 417.047 124.738 417.047 124.738C417.047 124.738 438.147 119.632 434.958 123.508C433.892 124.804 433.808 126.481 434.165 128.143C434.888 131.438 437.359 134.658 437.359 134.658Z" fill="#C37098"/>
<path d="M404.954 182.433L403.429 198.346C403.429 198.346 401.144 196.591 398.186 194.305C392.703 190.068 384.916 184.008 385.008 183.847C385.152 183.599 386.399 169.163 386.533 165.534C386.66 162.958 387.322 160.422 388.489 158.041C388.768 157.57 389.551 154.569 389.88 153.167C389.991 152.731 390.061 152.448 390.061 152.448L392.619 151.577C392.619 151.577 403.281 161.654 403.281 161.838C403.281 162.023 402.553 169.764 402.553 169.764L401.797 170.321L401.468 170.561C401.468 170.561 400.958 173.942 400.597 174.956C400.235 175.969 400.624 177.728 400.666 177.917C400.632 178.446 400.544 178.971 400.402 179.488C400.342 179.686 400.259 179.879 400.156 180.065C400.026 180.409 400.052 180.782 400.23 181.11C400.436 181.565 400.704 181.998 401.028 182.402L404.954 182.433Z" fill="#3F3D56"/>
<path d="M469.564 183.847C469.676 184.039 458.305 192.832 453.378 196.63L451.144 198.346L449.633 182.433H453.55C453.55 182.433 454.857 180.835 454.421 180.096C454.117 179.408 453.947 178.683 453.916 177.948C453.916 177.948 454.347 175.984 453.985 174.967C453.624 173.95 453.114 170.573 453.114 170.573L452.618 170.211L452.029 169.775C452.029 169.775 451.302 162.035 451.302 161.85C451.302 161.666 461.963 151.588 461.963 151.588L464.503 152.448C464.503 152.448 464.558 152.68 464.651 153.049C464.994 154.388 465.815 157.558 466.097 158.041C467.264 160.422 467.927 162.958 468.053 165.534C468.174 169.163 469.416 183.599 469.564 183.847Z" fill="#3F3D56"/>
<path d="M469.611 318.921C468.929 320.068 464.146 319.314 463.159 319.251C462.171 319.188 455.2 316.215 455.102 315.52C455.005 314.825 452.59 313.391 451.913 313.391C451.237 313.391 447.95 311.177 447.658 310.851C447.584 310.688 447.551 310.514 447.561 310.34C447.459 308.993 447.658 305.525 447.658 305.525L461.68 306.181L468.494 314.864C469.068 315.801 469.483 316.802 469.727 317.837C469.809 318.2 469.769 318.576 469.611 318.921V318.921Z" fill="#3F3D56"/>
<path opacity="0.1" d="M469.611 318.921C468.929 320.068 464.146 319.314 463.159 319.251C462.171 319.188 455.2 316.215 455.102 315.52C455.005 314.825 452.59 313.391 451.913 313.391C451.237 313.391 447.95 311.177 447.658 310.851C447.584 310.688 447.551 310.514 447.561 310.34C447.459 308.993 447.658 305.525 447.658 305.525L461.68 306.181L468.494 314.864C469.068 315.801 469.483 316.802 469.727 317.837C469.809 318.2 469.769 318.576 469.611 318.921V318.921Z" fill="black"/>
<path opacity="0.1" d="M469.611 318.921C468.929 320.068 464.146 319.314 463.159 319.251C462.171 319.188 455.2 316.215 455.103 315.52C455.005 314.825 452.59 313.392 451.913 313.392C451.237 313.392 447.95 311.177 447.658 310.851C447.584 310.688 447.551 310.514 447.561 310.34L452.104 312.775C452.104 312.775 455.005 314.346 455.779 315.277C456.553 316.207 462.653 318.143 463.159 318.183C463.534 318.214 467.539 317.562 469.727 317.837C469.809 318.2 469.769 318.576 469.611 318.921V318.921Z" fill="black"/>
<path d="M403.327 311.754C403.327 311.754 401.343 313.843 398.691 314.004C397.992 314.009 397.321 314.24 396.817 314.652C396.313 315.063 396.015 315.623 395.985 316.215C395.985 316.215 396.448 317.488 390.038 319.251C386.167 320.307 383.734 319.974 382.315 319.251C381.554 318.895 380.98 318.309 380.707 317.609C380.271 316.302 388.828 306.346 388.828 306.346L396.615 305.953L402.177 308.082L403.03 310.78L403.327 311.754Z" fill="#3F3D56"/>
<path opacity="0.1" d="M403.327 311.754C403.327 311.754 401.343 313.843 398.691 314.004C397.992 314.009 397.321 314.24 396.817 314.652C396.313 315.063 396.015 315.623 395.985 316.215C395.985 316.215 396.448 317.488 390.038 319.251C386.167 320.307 383.734 319.974 382.315 319.251C381.554 318.895 380.98 318.309 380.707 317.609C380.271 316.302 388.828 306.346 388.828 306.346L396.615 305.953L402.177 308.082L403.03 310.78L403.327 311.754Z" fill="black"/>
<path opacity="0.1" d="M403.327 311.754C403.327 311.754 401.343 313.843 398.692 314.004C397.992 314.009 397.321 314.24 396.817 314.652C396.314 315.063 396.015 315.623 395.985 316.215C395.985 316.215 396.448 317.488 390.038 319.251C386.167 320.307 383.734 319.974 382.315 319.251C385.963 318.929 394.024 316.977 394.83 316.302C395.799 315.481 397.009 313.227 397.829 313.187C398.4 313.156 401.297 311.679 403.035 310.764L403.327 311.754Z" fill="black"/>
<path d="M463.033 302.619C462.162 304.339 463.033 307.862 463.033 307.862C463.033 307.862 450.055 308.435 446.884 306.633C443.714 304.83 441.47 294.505 441.47 294.505C441.47 294.505 441.934 282.382 441.47 281.808C441.007 281.235 439.245 278.533 439.825 277.96C440.404 277.386 439.361 274.354 438.569 273.043C437.776 271.731 438.105 267.965 438.105 267.965L436.168 257.966L433.173 246.09L430.628 238.141C430.628 238.141 428.019 231.669 427.133 228.967C426.248 226.265 425.312 228.72 425.312 228.72C425.219 231.343 418.062 243.141 418.062 243.141C418.062 243.141 416.996 250.269 415.837 252.806C414.679 255.343 413.418 264.195 413.418 264.195C413.418 264.195 411.564 282.217 410.034 285.249C408.504 288.281 407.452 292.785 407.452 292.785C407.452 292.785 407.842 299.014 406.873 299.505C405.904 299.996 406.062 303.766 406.062 303.766C406.062 303.766 406.641 307.367 404.416 307.944C402.191 308.522 402.562 309.747 402.562 309.747C402.562 309.747 390.186 311.467 388.156 306.876C386.125 302.285 388.93 301.064 389.083 300.734C389.236 300.404 390.779 299.835 389.426 298.519C388.072 297.203 391.164 293.606 391.164 293.606C391.164 293.606 391.651 288.528 392.517 288.363C393.384 288.198 393.101 280.827 393.101 280.827L394.066 273.125C394.066 273.125 395.326 255.92 395.034 255.264C394.742 254.608 394.937 251.337 395.906 249.766C396.875 248.195 397.644 233.868 397.644 233.868C397.644 233.868 397.449 226.827 398.223 225.515C398.687 224.773 398.882 221.918 398.993 219.589C399.076 217.81 399.095 216.337 399.095 216.337L409.923 212.897L423.829 209.131L435.528 213.883L452.646 216.667L452.859 219.169L456.127 257.385L457.981 271.802C457.981 271.802 458.755 278.6 458.852 279.829C458.95 281.058 459.914 289.09 459.914 289.09C459.914 289.09 461.944 292.938 460.688 294.25C459.432 295.562 459.914 296.606 459.914 296.606C459.914 296.606 463.905 300.899 463.033 302.619Z" fill="#3F3D56"/>
<path opacity="0.1" d="M434.967 123.508C433.901 124.804 433.817 126.481 434.174 128.143C431.738 129.599 428.805 130.336 425.826 130.242C422.847 130.147 419.988 129.226 417.687 127.62V127.62C417.395 125.955 417.056 124.734 417.056 124.734C417.056 124.734 438.156 119.636 434.967 123.508Z" fill="black"/>
<path d="M439.899 118.497C439.899 120.773 439.102 122.998 437.61 124.89C436.118 126.782 433.997 128.257 431.515 129.128C429.033 129.999 426.303 130.227 423.668 129.783C421.034 129.339 418.614 128.243 416.714 126.634C414.815 125.025 413.521 122.974 412.997 120.742C412.473 118.51 412.742 116.196 413.77 114.094C414.798 111.991 416.539 110.194 418.772 108.93C421.006 107.665 423.631 106.99 426.318 106.99C428.104 106.983 429.873 107.276 431.525 107.851C433.177 108.427 434.677 109.274 435.94 110.344C437.203 111.414 438.203 112.686 438.883 114.085C439.562 115.485 439.907 116.984 439.899 118.497Z" fill="#C37098"/>
<path opacity="0.1" d="M442.726 137.619L438.277 204.756L414.104 200.455L409.315 173.542L414.057 137.411L417.626 137.8L423.921 138.479L430.156 138.805L436.914 138.169L442.726 137.619Z" fill="black"/>
<path d="M442.726 138.11L438.277 205.246L414.104 200.946L409.315 174.033L414.057 137.906L417.626 138.291L423.921 138.97L430.156 139.296L436.914 138.66L442.726 138.11Z" fill="#008DBC"/>
<path d="M422.855 139.913L431.56 140.16L429.113 143.062C429.113 143.062 429.284 148.926 430.448 150.607C431.611 152.287 431.268 178.254 431.268 178.254L428.95 181.981L424.987 177.803L425.038 143.518L422.855 139.913Z" fill="#3F3D56"/>
<path opacity="0.1" d="M422.855 139.913L431.56 140.16L429.113 143.062C429.113 143.062 429.284 148.926 430.448 150.607C431.611 152.287 431.268 178.254 431.268 178.254L428.95 181.981L424.987 177.803L425.038 143.518L422.855 139.913Z" fill="black"/>
<path opacity="0.1" d="M436.487 132.294L428.366 139.913L433.006 144.009L440.696 137.658L436.487 132.294Z" fill="black"/>
<path d="M436.487 131.803L428.366 139.422L433.006 143.518L440.696 137.167L436.487 131.803Z" fill="#008DBC"/>
<path opacity="0.1" d="M424.936 139.543L416.713 132.58L415.939 136.225L419.712 144.213L424.936 139.543Z" fill="black"/>
<path d="M425.224 139.053L417.005 132.089L416.231 135.734L420.004 143.722L425.224 139.053Z" fill="#008DBC"/>
<path opacity="0.1" d="M452.901 219.18C448.954 220.774 444.727 221.81 440.386 222.248C432.408 223.108 427.189 214.507 427.189 214.507L424.144 217.865C423.175 221.431 408.43 222.33 402.437 220.979C401.193 220.719 400.024 220.25 398.997 219.601C399.081 217.822 399.099 216.349 399.099 216.349L409.927 212.909L423.833 209.142L435.532 213.894L452.65 216.679L452.901 219.18Z" fill="black"/>
<path opacity="0.1" d="M442.726 138.114L438.281 205.246L414.104 200.946L409.306 174.036L414.043 137.906L417.613 138.298C417.521 139.615 417.347 140.926 417.089 142.226C416.509 144.523 420.088 160.825 420.088 160.825C420.088 160.825 426.888 179.107 429.947 176.471C433.006 173.836 437.363 159.922 437.363 159.922C440.316 154.762 437.414 140.286 437.197 139.995C437.045 139.567 436.951 139.126 436.918 138.679L442.726 138.114Z" fill="black"/>
<path opacity="0.1" d="M453.17 190.064L453.374 196.642L451.139 198.358L449.633 182.433H452.97L453.17 190.064Z" fill="black"/>
<path opacity="0.1" d="M400.67 177.928C400.636 178.458 400.548 178.983 400.406 179.499C400.406 179.354 400.406 179.272 400.369 179.26C400.231 179.228 400.397 178.628 400.67 177.928Z" fill="black"/>
<path opacity="0.1" d="M404.954 182.433L403.429 198.346C403.429 198.346 401.144 196.591 398.186 194.305L398.539 191.485C398.539 191.485 399.785 184.558 400.24 181.141C400.446 181.596 400.713 182.03 401.037 182.433H404.954Z" fill="black"/>
<path d="M418.067 132.333C418.067 132.333 416.621 130.53 414.637 134.01C414.637 134.01 409.464 136.551 407.684 136.838C405.904 137.124 399.572 139.009 399.572 139.009C398.616 139.595 397.466 139.91 396.286 139.909C394.302 139.909 392.656 143.596 392.897 145.603C393.139 147.61 392.754 149.087 390.918 149.169C389.083 149.252 390.093 152.484 390.093 152.484L402.326 164.364C402.326 164.364 403.1 175.301 402.715 175.631C402.33 175.961 400.926 179.166 401.264 179.276C401.603 179.386 399.41 191.481 399.41 191.481L396.462 214.955C396.462 214.955 396.462 218.882 402.46 220.237C408.458 221.592 423.212 220.696 424.162 217.13L427.208 213.769C427.208 213.769 432.427 222.373 440.404 221.513C448.381 220.653 453.462 218.195 453.462 218.195L452.59 190.064L452.011 169.787L464.466 152.448C464.466 152.448 461.128 147.041 461.42 144.594C461.712 142.147 462.287 140.294 455.181 139.433C455.181 139.433 449.188 138.675 445.656 136.606C443.557 135.371 441.263 134.393 438.842 133.7C438.842 133.7 436.849 130.558 435.463 131.634C435.463 131.634 436.854 136.076 436.738 136.739C436.622 137.403 436.956 140.403 437.173 140.714C437.391 141.024 440.293 155.48 437.34 160.641C437.34 160.641 433.006 174.555 429.924 177.19C426.841 179.825 420.065 161.544 420.065 161.544C420.065 161.544 416.486 145.238 417.066 142.944C417.645 140.651 418.067 132.333 418.067 132.333Z" fill="#3F3D56"/>
<path d="M428.413 186.038C429.588 186.038 430.54 185.231 430.54 184.236C430.54 183.24 429.588 182.433 428.413 182.433C427.238 182.433 426.285 183.24 426.285 184.236C426.285 185.231 427.238 186.038 428.413 186.038Z" fill="#3F3D56"/>
<path d="M428.413 194.537C429.588 194.537 430.54 193.73 430.54 192.734C430.54 191.739 429.588 190.932 428.413 190.932C427.238 190.932 426.285 191.739 426.285 192.734C426.285 193.73 427.238 194.537 428.413 194.537Z" fill="#3F3D56"/>
<path opacity="0.1" d="M428.413 186.038C429.588 186.038 430.54 185.231 430.54 184.236C430.54 183.24 429.588 182.433 428.413 182.433C427.238 182.433 426.285 183.24 426.285 184.236C426.285 185.231 427.238 186.038 428.413 186.038Z" fill="black"/>
<path opacity="0.1" d="M428.413 194.537C429.588 194.537 430.54 193.73 430.54 192.734C430.54 191.739 429.588 190.932 428.413 190.932C427.238 190.932 426.285 191.739 426.285 192.734C426.285 193.73 427.238 194.537 428.413 194.537Z" fill="black"/>
<path opacity="0.1" d="M447.533 300.161C447.533 300.161 456.266 300.734 457.133 301.307C458 301.881 447.533 300.161 447.533 300.161Z" fill="black" stroke="#6C63FF" stroke-miterlimit="10"/>
<path opacity="0.1" d="M395.54 294.344C395.54 294.344 397.394 296.308 396.606 297.211C395.818 298.114 395.54 294.344 395.54 294.344Z" fill="black" stroke="#6C63FF" stroke-miterlimit="10"/>
<path opacity="0.1" d="M397.764 301.425C397.764 301.425 401.148 299.54 402.502 300.793C403.855 302.046 397.764 301.425 397.764 301.425Z" fill="black" stroke="#008DBC" stroke-miterlimit="10"/>
<path opacity="0.1" d="M439.899 118.497C439.901 119.479 439.755 120.457 439.463 121.407C439.177 121.297 438.938 121.115 438.777 120.886C438.617 120.657 438.542 120.393 438.564 120.127C438.624 119.66 438.99 119.232 438.912 118.768C438.796 118.053 437.776 117.763 437.238 117.197C436.575 116.514 436.719 115.52 436.775 114.637C436.83 113.753 436.566 112.673 435.588 112.371C435.296 112.28 434.976 112.273 434.693 112.17C433.924 111.895 433.688 111.086 433.173 110.529C432.144 109.406 430.1 109.429 428.538 109.963C427.858 110.239 427.162 110.486 426.452 110.702C426.097 110.808 425.719 110.85 425.343 110.827C424.968 110.803 424.602 110.714 424.269 110.564C423.963 110.399 423.717 110.171 423.402 110.006C422.354 109.472 420.982 110.006 420.074 110.694C419.165 111.381 418.438 112.304 417.293 112.724C416.778 112.921 416.143 113.038 415.902 113.462C415.783 113.693 415.732 113.945 415.754 114.197C415.754 115.725 415.967 117.276 415.592 118.772C415.351 119.734 414.553 120.826 413.399 120.708C413.255 120.69 413.114 120.66 412.977 120.618C412.63 119.045 412.674 117.428 413.105 115.87C413.537 114.312 414.348 112.848 415.485 111.571C416.623 110.293 418.063 109.231 419.712 108.451C421.362 107.672 423.185 107.193 425.065 107.044C426.946 106.895 428.842 107.081 430.634 107.588C432.425 108.096 434.071 108.914 435.468 109.991C436.865 111.068 437.981 112.38 438.746 113.844C439.51 115.307 439.906 116.889 439.908 118.489L439.899 118.497Z" fill="black"/>
<path d="M412.37 119.966C412.718 120.033 413.047 120.186 413.404 120.225C414.558 120.343 415.355 119.251 415.596 118.289C415.972 116.793 415.777 115.242 415.763 113.714C415.737 113.463 415.787 113.21 415.907 112.979C416.171 112.555 416.806 112.437 417.297 112.241C418.419 111.817 419.152 110.914 420.079 110.211C421.006 109.508 422.354 108.989 423.402 109.523C423.713 109.681 423.963 109.916 424.269 110.081C424.603 110.229 424.97 110.317 425.346 110.34C425.722 110.364 426.1 110.323 426.457 110.219C427.175 110.038 427.847 109.72 428.538 109.48C430.086 108.946 432.135 108.927 433.173 110.042C433.688 110.603 433.924 111.409 434.694 111.683C434.976 111.786 435.296 111.797 435.588 111.888C436.566 112.198 436.816 113.27 436.775 114.154C436.733 115.037 436.594 116.031 437.238 116.714C437.776 117.272 438.796 117.563 438.912 118.285C438.986 118.749 438.624 119.181 438.564 119.644C438.55 119.816 438.577 119.989 438.642 120.153C438.708 120.316 438.811 120.467 438.946 120.596C439.081 120.725 439.245 120.831 439.429 120.906C439.612 120.981 439.811 121.025 440.015 121.034C441.22 121.034 441.966 119.891 443.093 119.526C443.556 119.373 444.117 119.349 444.483 119.039C444.619 118.89 444.715 118.718 444.765 118.534C444.815 118.35 444.817 118.159 444.771 117.975C444.543 116.471 443.12 115.163 443.273 113.655C443.417 112.21 444.998 110.949 444.664 109.527C444.494 109.003 444.176 108.522 443.737 108.125C443.24 107.555 442.592 107.091 441.846 106.77C441.201 106.535 440.455 106.48 439.866 106.193C438.114 105.38 438.119 103.26 437.085 101.814C436.642 101.217 436.013 100.735 435.267 100.42C434.521 100.106 433.688 99.9712 432.858 100.031C431.555 100.141 430.373 100.726 429.085 100.923C427.319 101.19 425.53 100.699 423.856 100.137C422.183 99.5757 420.491 98.9591 418.697 98.9591C416.903 98.9591 414.961 99.7446 414.414 101.182C414.127 101.967 414.271 102.808 414.048 103.597C413.659 104.999 412.194 105.997 410.72 106.692C409.705 107.171 408.486 107.721 408.365 108.699C408.287 109.319 408.69 109.877 408.945 110.478C409.378 111.494 409.368 112.609 408.917 113.62C408.579 114.362 408.013 115.014 407.67 115.752C407.427 116.253 407.311 116.792 407.332 117.334C407.353 117.876 407.509 118.407 407.791 118.894C408.007 119.249 408.306 119.562 408.67 119.816C409.034 120.069 409.456 120.256 409.909 120.367C410.822 120.551 411.397 119.785 412.37 119.966Z" fill="#3F3D56"/>
<g opacity="0.1">
<path opacity="0.1" d="M415.596 117.433C415.355 118.395 414.553 119.487 413.399 119.369C413.042 119.33 412.718 119.177 412.366 119.11C411.397 118.929 410.822 119.699 409.909 119.503C409.455 119.392 409.033 119.205 408.668 118.952C408.303 118.698 408.003 118.385 407.786 118.03C407.543 117.63 407.397 117.194 407.355 116.746C407.262 117.441 407.412 118.144 407.786 118.768C408.003 119.123 408.303 119.437 408.668 119.69C409.033 119.943 409.455 120.131 409.909 120.241C410.836 120.422 411.397 119.652 412.366 119.848C412.705 119.948 413.05 120.033 413.399 120.103C414.553 120.225 415.355 119.133 415.596 118.171C415.786 117.321 415.861 116.455 415.819 115.591C415.814 116.21 415.74 116.826 415.596 117.433V117.433Z" fill="black"/>
<path opacity="0.1" d="M409.246 111.518C409.305 110.875 409.201 110.228 408.94 109.622C408.73 109.218 408.552 108.804 408.407 108.381C408.387 108.447 408.372 108.513 408.361 108.581C408.282 109.197 408.69 109.759 408.94 110.36C409.102 110.733 409.205 111.123 409.246 111.518V111.518Z" fill="black"/>
<path opacity="0.1" d="M444.659 109.449C444.441 110.564 443.375 111.613 443.269 112.787C443.243 112.988 443.243 113.191 443.269 113.392C443.5 112.021 444.933 110.808 444.659 109.449Z" fill="black"/>
<path opacity="0.1" d="M444.738 117.735C444.699 117.9 444.608 118.052 444.474 118.175C444.131 118.485 443.547 118.509 443.083 118.662C441.957 119.027 441.229 120.182 440.005 120.17C439.692 120.155 439.392 120.06 439.143 119.897C438.895 119.735 438.711 119.512 438.615 119.259C438.587 119.344 438.565 119.431 438.55 119.518C438.537 119.69 438.564 119.863 438.63 120.026C438.696 120.189 438.799 120.339 438.934 120.468C439.069 120.597 439.233 120.702 439.416 120.777C439.599 120.852 439.798 120.895 440.001 120.905C441.211 120.905 441.952 119.762 443.079 119.401C443.542 119.247 444.108 119.224 444.469 118.914C444.605 118.764 444.702 118.592 444.751 118.408C444.801 118.224 444.803 118.034 444.757 117.849C444.752 117.802 444.743 117.771 444.738 117.735Z" fill="black"/>
<path opacity="0.1" d="M438.926 117.409C438.81 116.695 437.79 116.404 437.252 115.838C436.922 115.467 436.744 115.015 436.742 114.55C436.705 115.281 436.719 116.027 437.252 116.577C437.785 117.127 438.596 117.362 438.856 117.928C438.922 117.761 438.945 117.584 438.926 117.409V117.409Z" fill="black"/>
<path opacity="0.1" d="M436.77 113.298C436.807 112.414 436.557 111.334 435.579 111.032C435.291 110.941 434.972 110.929 434.689 110.831C433.919 110.556 433.678 109.747 433.168 109.19C432.135 108.07 430.091 108.09 428.533 108.624C427.838 108.864 427.175 109.182 426.452 109.362C426.097 109.469 425.719 109.511 425.343 109.488C424.968 109.464 424.602 109.375 424.269 109.225C423.963 109.06 423.713 108.832 423.402 108.667C422.35 108.133 420.978 108.667 420.074 109.355C419.17 110.042 418.438 110.961 417.293 111.385C416.774 111.581 416.143 111.699 415.874 112.123C415.756 112.354 415.707 112.607 415.731 112.858C415.731 113.011 415.731 113.164 415.731 113.317C415.737 113.159 415.783 113.004 415.865 112.862C416.134 112.437 416.764 112.32 417.284 112.123C418.405 111.699 419.138 110.796 420.065 110.093C420.992 109.39 422.341 108.872 423.393 109.406C423.703 109.563 423.954 109.798 424.26 109.959C424.592 110.11 424.958 110.2 425.334 110.223C425.71 110.247 426.088 110.204 426.443 110.097C427.151 109.883 427.846 109.638 428.524 109.362C430.077 108.828 432.121 108.805 433.159 109.924C433.669 110.482 433.91 111.291 434.68 111.566C434.962 111.668 435.282 111.68 435.57 111.77C436.362 112.021 436.677 112.775 436.747 113.521L436.77 113.298Z" fill="black"/>
</g>
<g opacity="0.1">
<path opacity="0.1" d="M413.942 117.409C413.968 116.758 414.244 116.131 414.727 115.623C415.21 115.115 415.875 114.754 416.621 114.594C418.688 114.165 420.856 114.249 422.869 114.833C427.268 116.066 422.313 120.504 422.313 120.504C422.313 120.504 419.017 123.253 415.944 121.333C415.036 120.751 414.401 119.917 414.15 118.976C414 118.464 413.929 117.937 413.942 117.409V117.409Z" fill="black"/>
<path opacity="0.1" d="M438.124 117.409C438.097 116.757 437.82 116.13 437.336 115.622C436.852 115.114 436.187 114.753 435.44 114.594C433.374 114.166 431.207 114.249 429.196 114.833C424.797 116.066 429.752 120.504 429.752 120.504C429.752 120.504 433.043 123.253 436.121 121.333C437.029 120.751 437.664 119.917 437.915 118.976C438.065 118.464 438.136 117.937 438.124 117.409Z" fill="black"/>
<path opacity="0.1" d="M422.039 114.472V114.656H430.072V114.436L422.039 114.472Z" fill="black"/>
<path opacity="0.1" d="M424.602 116.439H424.857V115.815C424.857 115.815 425.673 115.277 427.027 115.815V116.373H427.49V116.007H427.263C427.263 116.007 427.356 115.249 425.845 115.371C425.845 115.371 424.63 115.273 424.658 115.925H424.38L424.602 116.439Z" fill="black"/>
</g>
<path d="M413.941 117.154C413.968 116.502 414.244 115.875 414.727 115.368C415.21 114.86 415.874 114.499 416.621 114.338C418.688 113.913 420.855 113.996 422.869 114.578C427.268 115.815 422.313 120.249 422.313 120.249C422.313 120.249 419.017 122.998 415.944 121.077C415.034 120.498 414.398 119.662 414.15 118.721C413.999 118.209 413.929 117.682 413.941 117.154V117.154Z" fill="#008DBC"/>
<path d="M438.124 117.154C438.097 116.502 437.82 115.874 437.336 115.367C436.852 114.859 436.187 114.498 435.44 114.338C433.374 113.913 431.208 113.996 429.196 114.578C424.797 115.815 429.752 120.249 429.752 120.249C429.752 120.249 433.043 122.998 436.121 121.077C437.031 120.498 437.667 119.662 437.915 118.721C438.066 118.209 438.136 117.682 438.124 117.154Z" fill="#008DBC"/>
<path d="M422.039 114.224V114.413H430.072V114.189L422.039 114.224Z" fill="#006BB8"/>
<path d="M424.602 116.192H424.857V115.567C424.857 115.567 425.673 115.033 427.027 115.567V116.129H427.49V115.76H427.263C427.263 115.76 427.356 115.006 425.845 115.124C425.845 115.124 424.63 115.029 424.658 115.677H424.38L424.602 116.192Z" fill="#006BB8"/>
<path d="M57.0784 179.55H54.4456V229.78H57.0784V179.55Z" fill="#535461"/>
<path d="M73.6263 229.627L73.4594 231.889L73.2276 235.082L73.1303 236.413L72.8985 239.61L72.7966 240.941L72.5648 244.134L69.9088 280.45C69.7955 282.012 68.9829 283.48 67.6367 284.553C66.2905 285.625 64.512 286.223 62.6639 286.223H48.8601C47.0125 286.223 45.2346 285.625 43.8891 284.552C42.5437 283.479 41.732 282.012 41.6199 280.45L38.95 244.134L38.7182 240.941L38.6209 239.61L38.3937 236.405L38.2964 235.074L38.0646 231.881L37.8978 229.619C37.8661 229.185 37.9398 228.75 38.1142 228.341C38.2886 227.932 38.56 227.557 38.9118 227.24C39.2636 226.924 39.6882 226.671 40.1596 226.499C40.6309 226.326 41.1389 226.237 41.6523 226.238H69.8764C70.3904 226.237 70.899 226.326 71.3708 226.499C71.8426 226.672 72.2674 226.925 72.6189 227.243C72.9705 227.561 73.2413 227.936 73.4146 228.346C73.5878 228.757 73.6599 229.192 73.6263 229.627V229.627Z" fill="#3F3D56"/>
<path d="M73.4594 231.889L73.2276 235.082H38.2918L38.06 231.889H73.4594Z" fill="#9D9CB5"/>
<path d="M73.1303 236.413L72.8985 239.61H38.6255L38.3891 236.413H73.1303Z" fill="#9D9CB5"/>
<path d="M72.7966 240.941L72.5648 244.134H38.9593L38.7229 240.941H72.7966Z" fill="#9D9CB5"/>
<path d="M34.0409 198.378C49.3743 207.776 55.7616 222.479 55.7616 222.479C55.7616 222.479 37.2809 221.941 21.9243 212.543C6.56776 203.145 0.203568 188.442 0.203568 188.442C0.203568 188.442 18.7028 188.98 34.0409 198.378Z" fill="#008DBC"/>
<path d="M0.226685 188.442C0.226685 188.442 19.4073 197.474 25.5583 204.936C31.7093 212.398 55.7616 222.483 55.7616 222.483" stroke="#535461" stroke-width="2" stroke-miterlimit="10"/>
<path d="M43.9375 179.46C52.281 184.566 55.762 192.577 55.762 192.577C55.762 192.577 45.7036 192.287 37.3555 187.169C29.0074 182.052 25.5356 174.052 25.5356 174.052C25.5356 174.052 35.5941 174.323 43.9375 179.46Z" fill="#008DBC"/>
<path d="M25.5356 174.033C25.5356 174.033 35.9742 178.942 39.3208 183.006C42.6675 187.071 55.762 192.557 55.762 192.557" stroke="#535461" stroke-width="2" stroke-miterlimit="10"/>
<path d="M67.8925 192.153C58.3021 201.08 56.2765 212.744 56.2765 212.744C56.2765 212.744 69.7929 209.936 79.3786 201.009C88.9643 192.082 90.9945 180.414 90.9945 180.414C90.9945 180.414 77.4781 183.222 67.8925 192.153Z" fill="#008DBC"/>
<path d="M90.9945 180.414C90.9945 180.414 78.5072 189.565 75.332 195.872C72.1569 202.179 56.2765 212.759 56.2765 212.759" stroke="#535461" stroke-width="2" stroke-miterlimit="10"/>
</g>
<defs>
<linearGradient id="paint0_linear" x1="274.082" y1="253.732" x2="274.082" y2="42.3162" gradientUnits="userSpaceOnUse">
<stop stop-color="#808080" stop-opacity="0.25"/>
<stop offset="0.54" stop-color="#808080" stop-opacity="0.12"/>
<stop offset="1" stop-color="#808080" stop-opacity="0.1"/>
</linearGradient>
<linearGradient id="paint1_linear" x1="85304.1" y1="189857" x2="85304.1" y2="64327.7" gradientUnits="userSpaceOnUse">
<stop stop-color="#808080" stop-opacity="0.25"/>
<stop offset="0.54" stop-color="#808080" stop-opacity="0.12"/>
<stop offset="1" stop-color="#808080" stop-opacity="0.1"/>
</linearGradient>
<clipPath id="clip0">
<rect width="531" height="322" fill="white"/>
</clipPath>
</defs>
</svg>
